<?xml version="1.0" encoding="UTF-8" standalone="no"?>
<svg
   viewBox="0 0 22 22"
   version="1.1"
   id="svg1"
   sodipodi:docname="kde.svg"
   inkscape:version="1.3 (0e150ed6c4, 2023-07-21)"
   xmlns:inkscape="http://www.inkscape.org/namespaces/inkscape"
   xmlns:sodipodi="http://sodipodi.sourceforge.net/DTD/sodipodi-0.dtd"
   xmlns="http://www.w3.org/2000/svg"
   xmlns:svg="http://www.w3.org/2000/svg">
  <sodipodi:namedview
     id="namedview1"
     pagecolor="#505050"
     bordercolor="#eeeeee"
     borderopacity="1"
     inkscape:showpageshadow="0"
     inkscape:pageopacity="0"
     inkscape:pagecheckerboard="0"
     inkscape:deskcolor="#505050"
     inkscape:zoom="14.545455"
     inkscape:cx="19.765625"
     inkscape:cy="4.33125"
     inkscape:window-width="1600"
     inkscape:window-height="829"
     inkscape:window-x="-8"
     inkscape:window-y="-8"
     inkscape:window-maximized="1"
     inkscape:current-layer="svg1" />
  <defs
     id="defs3051">
    <style
       type="text/css"
       id="current-color-scheme">&#10;      .ColorScheme-Text {&#10;        color:#eff0f1;&#10;      }&#10;      </style>
  </defs>
  <path
     id="path2"
     style="fill:#ffffff;fill-opacity:1;stroke-width:5.05929"
     d="M 3 3 L 3 19 L 19 19 L 19 3 L 3 3 z M 11 5.8867188 A 5.1124997 5.1124997 0 0 1 11.25 5.8945312 A 5.1124997 5.1124997 0 0 1 11.501953 5.9121094 A 5.1124997 5.1124997 0 0 1 11.75 5.9433594 A 5.1124997 5.1124997 0 0 1 11.998047 5.9863281 A 5.1124997 5.1124997 0 0 1 12.242188 6.0410156 A 5.1124997 5.1124997 0 0 1 12.484375 6.1074219 A 5.1124997 5.1124997 0 0 1 12.722656 6.1855469 A 5.1124997 5.1124997 0 0 1 12.957031 6.2773438 A 5.1124997 5.1124997 0 0 1 13.185547 6.3789062 A 5.1124997 5.1124997 0 0 1 13.410156 6.4902344 A 5.1124997 5.1124997 0 0 1 13.628906 6.6152344 A 5.1124997 5.1124997 0 0 1 13.839844 6.75 A 5.1124997 5.1124997 0 0 1 14.044922 6.8945312 A 5.1124997 5.1124997 0 0 1 14.244141 7.0488281 A 5.1124997 5.1124997 0 0 1 14.433594 7.2109375 A 5.1124997 5.1124997 0 0 1 14.615234 7.3847656 A 5.1124997 5.1124997 0 0 1 14.789062 7.5664062 A 5.1124997 5.1124997 0 0 1 14.951172 7.7558594 A 5.1124997 5.1124997 0 0 1 15.105469 7.9550781 A 5.1124997 5.1124997 0 0 1 15.25 8.1601562 A 5.1124997 5.1124997 0 0 1 15.384766 8.3710938 A 5.1124997 5.1124997 0 0 1 15.509766 8.5898438 A 5.1124997 5.1124997 0 0 1 15.621094 8.8144531 A 5.1124997 5.1124997 0 0 1 15.722656 9.0429688 A 5.1124997 5.1124997 0 0 1 15.814453 9.2773438 A 5.1124997 5.1124997 0 0 1 15.892578 9.515625 A 5.1124997 5.1124997 0 0 1 15.958984 9.7578125 A 5.1124997 5.1124997 0 0 1 16.013672 10.001953 A 5.1124997 5.1124997 0 0 1 16.056641 10.25 A 5.1124997 5.1124997 0 0 1 16.087891 10.498047 A 5.1124997 5.1124997 0 0 1 16.105469 10.75 A 5.1124997 5.1124997 0 0 1 16.113281 11 A 5.1124997 5.1124997 0 0 1 16.060547 11.728516 A 5.1124997 5.1124997 0 0 1 15.90625 12.439453 A 5.1124997 5.1124997 0 0 1 15.650391 13.123047 A 5.1124997 5.1124997 0 0 1 15.300781 13.763672 A 5.1124997 5.1124997 0 0 1 14.863281 14.347656 A 5.1124997 5.1124997 0 0 1 14.347656 14.863281 A 5.1124997 5.1124997 0 0 1 13.763672 15.300781 A 5.1124997 5.1124997 0 0 1 13.123047 15.650391 A 5.1124997 5.1124997 0 0 1 12.439453 15.90625 A 5.1124997 5.1124997 0 0 1 11.728516 16.060547 A 5.1124997 5.1124997 0 0 1 11 16.113281 A 5.1124997 5.1124997 0 0 1 10.271484 16.060547 A 5.1124997 5.1124997 0 0 1 9.5605469 15.90625 A 5.1124997 5.1124997 0 0 1 8.8769531 15.650391 A 5.1124997 5.1124997 0 0 1 8.2363281 15.300781 A 5.1124997 5.1124997 0 0 1 7.6523438 14.863281 A 5.1124997 5.1124997 0 0 1 7.1367188 14.347656 A 5.1124997 5.1124997 0 0 1 6.6992188 13.763672 A 5.1124997 5.1124997 0 0 1 6.3496094 13.123047 A 5.1124997 5.1124997 0 0 1 6.09375 12.439453 A 5.1124997 5.1124997 0 0 1 5.9394531 11.728516 A 5.1124997 5.1124997 0 0 1 5.8867188 11 A 5.1124997 5.1124997 0 0 1 5.9394531 10.271484 A 5.1124997 5.1124997 0 0 1 6.09375 9.5605469 A 5.1124997 5.1124997 0 0 1 6.3496094 8.8769531 A 5.1124997 5.1124997 0 0 1 6.6992188 8.2363281 A 5.1124997 5.1124997 0 0 1 7.1367188 7.6523438 A 5.1124997 5.1124997 0 0 1 7.6523438 7.1367188 A 5.1124997 5.1124997 0 0 1 8.2363281 6.6992188 A 5.1124997 5.1124997 0 0 1 8.8769531 6.3496094 A 5.1124997 5.1124997 0 0 1 9.5605469 6.09375 A 5.1124997 5.1124997 0 0 1 10.271484 5.9394531 A 5.1124997 5.1124997 0 0 1 11 5.8867188 z " />
</svg>
